# xmcd
#
# Track frame offsets: 
#        183
#        14808
#        26783
#        40743
#        56135
#        69803
#        80103
#        93498
#        105228
#        115160
#        130900
#        144243
#        158228
#        169883
#        184728
#        196033
#        207808
#        216035
#
# Disc length: 3010 seconds
#
# Revision: 3
# Processed by: cddbd v1.5.2PL0 Copyright (c) Steve Scherf et al.
# Submitted via: ExactAudioCopy v0.99pb5
#
DISCID=f70bc012
DTITLE=Various Artist - Die große Schlagerparty - CD 1
DYEAR=1995
DGENRE=Schlager
TTITLE0=Rudi Schuricke - Capri-Fischer
TTITLE1=Die Cyprys - Die Fischerin vom Bodensee
TTITLE2=René Carol - Rote Rosen, rote Lippen, roter Wein
TTITLE3=The Kilima Hawaiians - Es hängt ein Pferdehalfter an der Wand
TTITLE4=Willy Schneider - Schütt die Sorgen in ein Gläschen Wein
TTITLE5=Bruce Low - Wenn die Sonne scheint in Texas
TTITLE6=Die Sieben Raben - Smoky
TTITLE7=Peter Alexander - Ich zähle täglich meine Sorgen
TTITLE8=Peter Kraus und die "Rockies" - Tutti-Frutti
TTITLE9=Rudi Schuricke - O mia bella Napoli
TTITLE10=Die singenden Gesellen - Köhlerliesel
TTITLE11=Leo Leandros and Die Original Calypso Stars - Komm, Mister Tall
TTITLE11=iman (Banana Boat Song)
TTITLE12=Caterina Valente - Tipitipitipso
TTITLE13=Das Tom Dooley-Trio - Tom Dooley
TTITLE14=Peter Kraus - Sugar-Baby
TTITLE15=Ivo Robic - Morgen
TTITLE16=Ted Herold - Hula Rock
TTITLE17=Honey Twins - Charly Brown
EXTD=
EXTT0=
EXTT1=
EXTT2=
EXTT3=
EXTT4=
EXTT5=
EXTT6=
EXTT7=
EXTT8=
EXTT9=
EXTT10=
EXTT11=
EXTT12=
EXTT13=
EXTT14=
EXTT15=
EXTT16=
EXTT17=
PLAYORDER=
